<svg width="25" height="24.907" viewBox="0 0 18.75 18.681" xmlns="http://www.w3.org/2000/svg"><path fill="#700" d="M1.71 0h.483c.272.062.547.141.779.301.579.387 1.015.94 1.512 1.42C5.625 2.857 6.76 4 7.901 5.134c.472.414.858.915 1.335 1.321.152.12.291-.077.4-.164 1.619-1.634 3.251-3.256 4.878-4.882.363-.358.696-.753 1.113-1.051.253-.186.56-.277.86-.357h.483c.387.123.803.241 1.079.56.467.42.718 1.079.601 1.702-.052.477-.354.877-.675 1.212-1.885 1.878-3.762 3.764-5.648 5.642-.081.084-.205.214-.101.33.234.278.535.492.764.775 1.42 1.418 2.826 2.848 4.263 4.248.408.473.938.851 1.231 1.416.376.732.169 1.689-.436 2.235-.281.308-.692.434-1.076.56h-.482c-.581-.095-1.069-.456-1.454-.885-1.797-1.803-3.603-3.6-5.399-5.405-.105-.081-.202-.232-.354-.195-.208.141-.367.341-.547.514l-5.297 5.297c-.342.339-.768.594-1.245.674H1.71c-.403-.129-.827-.269-1.112-.599-.347-.3-.493-.75-.599-1.182v-.411c.062-.272.145-.545.302-.78.256-.409.644-.705.966-1.057 1.612-1.618 3.233-3.227 4.844-4.844.13-.131.274-.251.373-.408.039-.151-.115-.25-.195-.354C4.472 7.239 2.665 5.421.848 3.613.434 3.235.095 2.754 0 2.192v-.411C.106 1.35.252.899.599.599.884.27 1.307.127 1.71 0Z"/></svg>