<svg width="25pt" height="23.936" viewBox="0 0 25 17.952" xmlns="http://www.w3.org/2000/svg"><path fill="#396" d="M22.755.055c.463-.09.929.103 1.329.321.433.335.847.819.826 1.4.01.326.012.669-.149.965-.137.331-.409.571-.659.816-4.63 4.634-9.266 9.263-13.896 13.898-.392.318-.915.512-1.423.455-.412-.096-.844-.232-1.137-.554-.694-.704-1.365-1.426-2.076-2.113-.442-.332-.738-.811-1.172-1.151-.387-.323-.665-.754-1.06-1.069-.496-.413-.869-.949-1.366-1.361-.357-.352-.675-.745-1.065-1.062-.205-.2-.456-.377-.565-.651a4.734 4.734 0 0 1-.297-.779c-.076-.38.114-.736.256-1.075.075-.2.201-.38.372-.51.281-.21.584-.407.928-.495.346-.012.715-.056 1.039.096.274.138.532.312.75.527 1.847 1.855 3.703 3.701 5.549 5.556.076.01.155-.004.203-.07 4.268-4.266 8.532-8.535 12.8-12.801.23-.19.533-.257.813-.343Z"/></svg>